<svg width="8" height="15" viewBox="0 0 8 15" fill="none" xmlns="http://www.w3.org/2000/svg">
<path fill-rule="evenodd" clip-rule="evenodd" d="M4.34544 9.25041C4.3752 9.24546 4.40497 9.24024 4.43443 9.23508C4.57281 9.21085 4.70419 9.18784 4.79424 9.1993C4.98831 9.22399 5.27614 9.60526 5.52934 10.0612C5.80442 10.5564 6.00721 11.0036 5.99815 11.294C5.9891 11.5844 5.52934 12.0572 5.27589 12.0589C5.02244 12.0606 4.84757 12.0589 4.38109 12.0112C3.9146 11.9635 3.24475 11.514 3.05287 11.2101C3.01142 11.1444 2.9725 11.0823 2.93476 11.019C2.79777 10.7893 2.67639 10.5444 2.50683 10.0612C2.38177 9.7047 2.27993 9.33995 2.2013 8.96996C2.14516 8.7058 2.10086 8.43896 2.06839 8.17058C2.02384 7.80229 2.00157 7.43109 2.00158 7.05989C2.00159 6.68869 2.02389 6.31749 2.06846 5.9492C2.09963 5.69172 2.14168 5.43565 2.19462 5.182C2.27415 4.80099 2.37824 4.42542 2.50691 4.05865C2.67086 3.5913 2.78974 3.33893 2.92127 3.1178C2.96323 3.04726 3.00647 2.9799 3.05287 2.90976C3.24475 2.61971 3.88724 2.15627 4.38109 2.10858C4.8225 2.06596 5.01031 2.06389 5.20555 2.06174C5.22875 2.06148 5.25205 2.06122 5.27589 2.0609C5.50043 2.05783 5.99548 2.5239 5.99815 2.82582C6.00082 3.12774 5.80442 3.56341 5.52934 4.05865C5.27614 4.51451 5.03412 4.89214 4.79424 4.92047C4.67301 4.93479 4.50319 4.90593 4.34543 4.87912L4.34253 4.87863C4.18927 4.85258 4.04775 4.82874 3.97373 4.84868C3.82312 4.88924 3.54967 4.99569 3.49577 5.36949C3.4932 5.38732 3.49073 5.40442 3.48836 5.42085C3.44104 5.74875 3.43248 5.80805 3.41183 6.05947C3.38433 6.39422 3.37058 6.72708 3.37058 7.05993C3.37058 7.39276 3.38433 7.72559 3.41183 8.0603L3.4131 8.07586C3.43387 8.32872 3.44294 8.4392 3.49577 8.75029C3.54967 9.06768 3.74545 9.23555 3.97986 9.27276C4.08232 9.28902 4.21374 9.27231 4.34544 9.25041ZM5.37457 6.83935C6.14981 6.62289 6.59901 6.05306 6.72764 5.88989L6.72889 5.88831C6.95961 5.59564 7.15007 5.26252 7.27928 5.0299C7.43376 4.75178 7.59825 4.43406 7.72726 4.11049C7.84309 3.81995 8.00443 3.34784 7.99965 2.80813C7.99459 2.23605 7.77645 1.79594 7.64424 1.56961C7.49263 1.31005 7.31188 1.09245 7.1437 0.922381C6.97566 0.752451 6.7691 0.578364 6.5318 0.432447C6.36872 0.332171 5.89055 0.0514747 5.24849 0.0602602C5.22601 0.0605679 5.20348 0.0608256 5.18064 0.0610869C4.96138 0.0635949 4.71253 0.0664418 4.18864 0.117028C3.48664 0.184812 2.88759 0.500228 2.52245 0.734536C2.16526 0.963751 1.69714 1.33173 1.38331 1.80614C1.09444 2.24282 0.885227 2.63507 0.618097 3.39654C0.204199 4.57639 4.27173e-05 5.8213 6.70178e-09 7.05982C-4.27039e-05 8.29844 0.204061 9.54344 0.618057 10.7234C0.893193 11.5075 1.10375 11.8716 1.3601 12.2778C1.69309 12.8053 2.20651 13.1865 2.55172 13.4025C2.91355 13.629 3.50343 13.9328 4.17747 14.0017C4.7199 14.0571 4.96732 14.0618 5.28924 14.0597C5.89878 14.0556 6.3547 13.801 6.55244 13.678C6.80037 13.5236 7.01009 13.3405 7.17649 13.1663C7.34392 12.9909 7.51551 12.7743 7.65817 12.5229C7.78234 12.304 7.98212 11.89 7.99876 11.3563C8.01649 10.788 7.84015 10.2901 7.72897 10.0119C7.59938 9.68773 7.4336 9.3677 7.27928 9.08987C7.11975 8.80267 6.91803 8.48014 6.68541 8.19746C6.57069 8.05804 6.40884 7.87951 6.202 7.7149C6.06387 7.60498 5.77994 7.39827 5.3746 7.28198C5.37135 7.13439 5.37134 6.98694 5.37457 6.83935Z" fill="#888888"/>
</svg>
