<svg width="113" height="48" viewBox="0 0 113 48" fill="none" xmlns="http://www.w3.org/2000/svg">
<g clip-path="url(#clip0_2500_222)">
<path d="M111.091 39.6569V32.1664L106.032 39.6569H104.118V29.2363H106.032V36.8226L111.091 29.2363H113V39.6569H111.091Z" fill="#FBFBFD"/>
<path d="M95.5394 38.8317C92.3901 38.651 90.8154 37.1893 90.8154 34.4466C90.8154 31.7039 92.3901 30.2422 95.5394 30.0615V29.2363H97.5326V30.0336C100.687 30.1957 102.262 31.6654 102.257 34.4426C102.251 37.2199 100.677 38.6816 97.5326 38.8277V39.625H95.5394V38.8317ZM97.5326 31.7358V37.1574C99.3132 36.9953 100.204 36.0824 100.204 34.4187C100.204 32.755 99.3132 31.8607 97.5326 31.7358ZM95.5394 37.1494V31.7438C93.7561 31.9192 92.8658 32.8108 92.8685 34.4187C92.8711 36.0266 93.7614 36.9368 95.5394 37.1494Z" fill="#FBFBFD"/>
<path d="M78.6289 34.4627C78.6289 30.9307 80.4241 29.1647 84.0146 29.1647C87.5466 29.1647 89.3139 30.9307 89.3166 34.4627C89.3192 37.9947 87.5519 39.75 84.0146 39.7288C80.5863 39.7288 78.791 37.9734 78.6289 34.4627ZM80.6939 34.4188C80.6939 36.8426 81.8008 38.0531 84.0146 38.0505C86.1726 38.0505 87.2516 36.8399 87.2516 34.4188C87.2516 31.9977 86.1726 30.8018 84.0146 30.831C81.7981 30.831 80.6912 32.0269 80.6939 34.4188Z" fill="#FBFBFD"/>
<path d="M69.6115 39.6569V29.2363H74.3952C76.5798 29.2363 77.6734 30.2157 77.676 32.1743C77.676 34.3005 76.1798 35.5854 73.1873 36.0292L72.9003 34.3111C74.7022 33.9922 75.5991 33.2985 75.5991 32.2341C75.5991 31.3678 75.1539 30.9346 74.2636 30.9346H71.5967V39.6569H69.6115Z" fill="#FBFBFD"/>
<path d="M57.8754 39.6569V29.2363H67.3591V39.6569H65.3739V30.9106H59.8606V39.6569H57.8754Z" fill="#FBFBFD"/>
<path d="M99.2626 18.3853C99.1828 14.8533 101.056 13.0873 104.648 13.0873C108.24 13.0873 109.946 14.8533 109.946 18.3853C109.946 21.9173 108.18 23.6514 104.648 23.6514C101.216 23.6514 99.3423 21.8973 99.2626 18.3853ZM101.324 18.3414C101.324 20.7652 102.432 21.9757 104.648 21.9731C106.806 21.9731 107.885 20.7625 107.885 18.3414C107.885 15.9203 106.806 14.7244 104.648 14.7536C102.432 14.7536 101.324 15.9496 101.324 18.3414Z" fill="#FBFBFD"/>
<path d="M87.9132 23.5795V13.1589H89.8985V17.3886H95.4077V13.1589H97.397V23.5795H95.4077V19.0629H89.8985V23.5795H87.9132Z" fill="#FBFBFD"/>
<path d="M79.9323 18.3692L75.7107 13.1589H78.2261L81.1881 16.962L84.146 13.1589H86.6615L82.4438 18.3692L86.6615 23.5795H84.146L81.1881 19.7764L78.2261 23.5795H75.7107L79.9323 18.3692Z" fill="#FBFBFD"/>
<path d="M74.7102 13.1589V14.8213H69.3405V17.4444H74.4511V19.1705H69.3166V21.9012H74.8139V23.5795H67.3672V13.1589H74.7102Z" fill="#FBFBFD"/>
<path d="M66.2428 13.1589V14.8372H62.4916V23.5795H60.5024V14.8372H56.7511V13.1589H66.2428Z" fill="#FBFBFD"/>
<path fill-rule="evenodd" clip-rule="evenodd" d="M40.8731 13.1589L40.8372 39.6569L36.3525 42.2401V15.77L18.0786 5.2179L13.5619 7.82903L31.8318 18.3772V44.8512L27.3112 47.4623V20.9883L4.52063 7.82903L18.0786 -0.000366211L40.8731 13.1589Z" fill="#EBBD00"/>
<path fill-rule="evenodd" clip-rule="evenodd" d="M0 15.6585V10.4402L22.7945 23.5995V28.8098L12.9879 23.149V43.1052L8.46723 40.4941V20.5379L0 15.6585Z" fill="#FBFBFD"/>
</g>
<defs>
<clipPath id="clip0_2500_222">
<rect width="113" height="47.4627" fill="white"/>
</clipPath>
</defs>
</svg>
